# xmcd CD database file
#
# Track frame offsets:
#	182
#	22695
#	44847
#	69140
#	89665
#	112937
#	135785
#	168290
#	191340
#	216032
#	247830
#
# Disc length: 3671 seconds
#
# Revision: 1
# Processed by: cddbd v1.5.2PL0 Copyright (c) Steve Scherf et al.
# Submitted via: CDex 1.51
#
DISCID=810e550b
DTITLE=Various Artist - Warner Jazz Collection - Vibraphone
DYEAR=2000
DGENRE=Jazz
TTITLE0=Milt Jackson - Isn't She Lovely
TTITLE1=Lionel Hampton - Hallelujah
TTITLE2=Bobby Hutcherson - My Foolish Heart
TTITLE3=Terry Gibbs - Sing Sing Sing
TTITLE4=Tyree Glenn - In A Mellow Tone
TTITLE5=Modern Jazz Quartet - Nature Boy
TTITLE6=Teddy Charles - I Cant Get Started
TTITLE7=Red Norvo - Tea For Two
TTITLE8=Cal Tjader - Our Love Is Here To Stay
TTITLE9=Lem Winchester - Will You Still Be Mine
TTITLE10=Milt Jackson - Feelings
EXTD=YEAR: 2000
EXTT0=
EXTT1=
EXTT2=
EXTT3=
EXTT4=
EXTT5=
EXTT6=
EXTT7=
EXTT8=
EXTT9=
EXTT10=
PLAYORDER=
